<svg width="435" height="127" viewBox="0 0 435 127" fill="none" xmlns="http://www.w3.org/2000/svg">
  <path
    fill-rule="evenodd"
    clip-rule="evenodd"
    d="M0.639893 99.08V75.3573L66.8642 1.15998H113.28V69.48H138.56V99.08H113.28V125H76.6399V99.08H0.639893ZM67.7599 3.15998H111.28V71.48H136.56V97.08H111.28V123H78.6399V97.08H2.63989V76.12L67.7599 3.15998ZM42.2923 69.48H76.6399V30.8221L42.2923 69.48ZM37.8399 71.48L78.6399 25.56V71.48H37.8399ZM157.427 22.043C167.555 9.50848 184.816 0.039978 213.142 0.039978H219.862C248.276 0.039978 265.537 9.63359 275.642 22.2284C285.679 34.7382 288.422 49.9179 288.422 60.76V65.56C288.422 76.2533 285.594 91.5823 275.53 104.282C265.395 117.071 248.138 126.92 219.862 126.92H213.142C184.789 126.92 167.53 117.072 157.414 104.281C147.368 91.5786 144.582 76.2485 144.582 65.56V60.76C144.582 49.6785 147.365 34.4951 157.427 22.043ZM244.319 83.7514C249.022 77.2195 250.182 69.3315 250.182 64.12V61.88C250.182 56.7367 249.098 49.0646 244.432 42.7256C239.849 36.4992 231.575 31.24 216.502 31.24C201.262 31.24 192.996 36.5039 188.458 42.7194C183.834 49.0511 182.822 56.7181 182.822 61.88V64.12C182.822 69.3133 184.055 77.2019 188.837 83.7393C193.536 90.1647 201.863 95.56 216.662 95.56C231.461 95.56 239.701 90.1663 244.319 83.7514ZM296.59 99.08V75.3573L362.814 1.15998H409.23V69.48H434.51V99.08H409.23V125H372.59V99.08H296.59ZM363.71 3.15998H407.23V71.48H432.51V97.08H407.23V123H374.59V97.08H298.59V76.12L363.71 3.15998ZM338.242 69.48H372.59V30.8221L338.242 69.48ZM333.79 71.48L374.59 25.56V71.48H333.79ZM146.582 60.76C146.582 39.16 157.462 2.03998 213.142 2.03998H219.862C275.702 2.03998 286.422 39.64 286.422 60.76V65.56C286.422 86.36 275.382 124.92 219.862 124.92H213.142C157.462 124.92 146.582 86.36 146.582 65.56V60.76ZM216.662 97.56C247.382 97.56 252.182 75 252.182 64.12V61.88C252.182 51.16 247.702 29.24 216.502 29.24C184.982 29.24 180.822 51.16 180.822 61.88V64.12C180.822 75 185.942 97.56 216.662 97.56Z"
    fill="#4C63F6"
  />
</svg>
